<svg xmlns="http://www.w3.org/2000/svg" width="24" height="24" viewBox="0 0 24 24" fill="none">
  <g clip-path="url(#clip0_151_830)">
    <path d="M11.9 12.4301C10.6665 12.444 9.45672 12.0908 8.42446 11.4153C7.3922 10.7399 6.58408 9.77282 6.10284 8.63698C5.62161 7.50113 5.48898 6.24783 5.72183 5.03642C5.95468 3.825 6.54248 2.71018 7.41052 1.83368C8.27855 0.957175 9.38761 0.358576 10.5967 0.113978C11.8058 -0.130619 13.0603 -0.0101684 14.2008 0.460019C15.3413 0.930207 16.3162 1.72889 17.0016 2.75455C17.687 3.7802 18.0519 4.9865 18.05 6.22009C18.054 7.03166 17.898 7.83606 17.5911 8.58737C17.2842 9.33867 16.8322 10.0222 16.2612 10.5988C15.6901 11.1755 15.011 11.634 14.2627 11.9482C13.5144 12.2624 12.7116 12.4262 11.9 12.4301ZM11.9 2.59009C11.1808 2.58414 10.4761 2.79198 9.87518 3.18722C9.2743 3.58245 8.80437 4.14728 8.52502 4.81003C8.24566 5.47278 8.16948 6.20358 8.30614 6.9097C8.4428 7.61581 8.78614 8.26542 9.29259 8.77609C9.79904 9.28676 10.4458 9.63547 11.1507 9.77799C11.8557 9.9205 12.5871 9.85039 13.2521 9.57654C13.9172 9.3027 14.4859 8.83747 14.8861 8.23989C15.2863 7.64231 15.5 6.93931 15.5 6.22009C15.5 5.26253 15.1217 4.34374 14.4474 3.66384C13.7732 2.98394 12.8575 2.598 11.9 2.59009Z" fill="#182F3D"/>
    <path d="M12.26 24.0001C9.18403 23.9602 6.15372 23.2504 3.38 21.9201L2.77999 21.6501L2.65 21.0001C2.65 20.9835 2.64399 20.9361 2.63451 20.8612C2.52986 20.0352 2.00185 15.8676 4.44999 12.8601C6.07999 10.8601 8.58 9.86011 11.9 9.86011C15.22 9.86011 17.74 10.8601 19.41 12.8601C21.9371 15.8871 21.4994 20.0879 21.4204 20.8464C21.414 20.9073 21.41 20.946 21.41 20.9601L21.31 21.6101L20.73 21.9101C18.1167 23.2801 15.2106 23.9972 12.26 24.0001ZM5.07999 19.8501C10 21.9401 14.54 21.9501 18.94 19.8501C19.1083 17.9373 18.583 16.0277 17.46 14.4701C16.29 13.0901 14.46 12.3801 11.9 12.3801C9.33999 12.3801 7.54 13.0801 6.42 14.4401C5.32404 16.0177 4.84705 17.9434 5.07999 19.8501Z" fill="#182F3D"/>
    <path d="M12.26 24.0001C9.18403 23.9602 6.15372 23.2504 3.38 21.9201L2.77999 21.6501L2.65 21.0001C2.65 20.9835 2.64399 20.9361 2.63451 20.8612C2.52986 20.0352 2.00185 15.8676 4.44999 12.8601C6.07999 10.8601 8.58 9.86011 11.9 9.86011C15.22 9.86011 17.74 10.8601 19.41 12.8601C21.9371 15.8871 21.4994 20.0879 21.4204 20.8464C21.414 20.9073 21.41 20.946 21.41 20.9601L21.31 21.6101L20.73 21.9101C18.1167 23.2801 15.2106 23.9972 12.26 24.0001ZM5.07999 19.8501C10 21.9401 14.54 21.9501 18.94 19.8501C19.1083 17.9373 18.583 16.0277 17.46 14.4701C16.29 13.0901 14.46 12.3801 11.9 12.3801C9.33999 12.3801 7.54 13.0801 6.42 14.4401C5.32404 16.0177 4.84705 17.9434 5.07999 19.8501Z" stroke="#182F3D"/>
  </g>
  <defs>
    <clipPath id="clip0_151_830">
      <rect width="24" height="24" fill="white"/>
    </clipPath>
  </defs>
</svg>